<mxfile host="app.diagrams.net" agent="Mozilla/5.0 (Windows NT 10.0; Win64; x64) AppleWebKit/537.36 (KHTML, like Gecko) Chrome/132.0.0.0 Safari/537.36" version="26.0.10">
  <diagram id="prtHgNgQTEPvFCAcTncT" name="Page-1">
    <mxGraphModel dx="1034" dy="1623" grid="1" gridSize="10" guides="1" tooltips="1" connect="1" arrows="1" fold="1" page="1" pageScale="1" pageWidth="827" pageHeight="1169" math="0" shadow="0">
      <root>
        <mxCell id="0" />
        <mxCell id="1" parent="0" />
        <mxCell id="dNxyNK7c78bLwvsdeMH5-19" value="GAP Membership" style="swimlane;html=1;childLayout=stackLayout;resizeParent=1;resizeParentMax=0;horizontal=0;startSize=20;horizontalStack=0;" parent="1" vertex="1">
          <mxGeometry x="60" y="120" width="1240" height="850" as="geometry" />
        </mxCell>
        <mxCell id="dNxyNK7c78bLwvsdeMH5-20" value="external system" style="swimlane;html=1;startSize=20;horizontal=0;" parent="dNxyNK7c78bLwvsdeMH5-19" vertex="1">
          <mxGeometry x="20" width="1220" height="230" as="geometry" />
        </mxCell>
        <mxCell id="fAiptgPwoaIp5djZWvxq-3" style="edgeStyle=orthogonalEdgeStyle;rounded=0;orthogonalLoop=1;jettySize=auto;html=1;exitX=0.5;exitY=1;exitDx=0;exitDy=0;entryX=0.5;entryY=0;entryDx=0;entryDy=0;" edge="1" parent="dNxyNK7c78bLwvsdeMH5-20" source="dNxyNK7c78bLwvsdeMH5-23" target="fAiptgPwoaIp5djZWvxq-2">
          <mxGeometry relative="1" as="geometry" />
        </mxCell>
        <mxCell id="dNxyNK7c78bLwvsdeMH5-23" value="start" style="ellipse;whiteSpace=wrap;html=1;" parent="dNxyNK7c78bLwvsdeMH5-20" vertex="1">
          <mxGeometry x="40" y="10" width="40" height="40" as="geometry" />
        </mxCell>
        <mxCell id="fAiptgPwoaIp5djZWvxq-4" style="edgeStyle=orthogonalEdgeStyle;rounded=0;orthogonalLoop=1;jettySize=auto;html=1;exitX=0.5;exitY=1;exitDx=0;exitDy=0;" edge="1" parent="dNxyNK7c78bLwvsdeMH5-20" source="fAiptgPwoaIp5djZWvxq-2">
          <mxGeometry relative="1" as="geometry">
            <mxPoint x="60" y="140" as="targetPoint" />
          </mxGeometry>
        </mxCell>
        <mxCell id="fAiptgPwoaIp5djZWvxq-11" style="edgeStyle=orthogonalEdgeStyle;rounded=0;orthogonalLoop=1;jettySize=auto;html=1;exitX=1;exitY=0.5;exitDx=0;exitDy=0;" edge="1" parent="dNxyNK7c78bLwvsdeMH5-20" source="fAiptgPwoaIp5djZWvxq-2">
          <mxGeometry relative="1" as="geometry">
            <mxPoint x="110" y="-50" as="targetPoint" />
          </mxGeometry>
        </mxCell>
        <mxCell id="fAiptgPwoaIp5djZWvxq-2" value="&amp;nbsp;creates workflow" style="rounded=1;whiteSpace=wrap;html=1;absoluteArcSize=1;arcSize=14;strokeWidth=2;" vertex="1" parent="dNxyNK7c78bLwvsdeMH5-20">
          <mxGeometry x="30" y="70" width="60" height="50" as="geometry" />
        </mxCell>
        <mxCell id="fAiptgPwoaIp5djZWvxq-6" style="edgeStyle=orthogonalEdgeStyle;rounded=0;orthogonalLoop=1;jettySize=auto;html=1;exitX=0.5;exitY=1;exitDx=0;exitDy=0;" edge="1" parent="dNxyNK7c78bLwvsdeMH5-20" source="fAiptgPwoaIp5djZWvxq-5">
          <mxGeometry relative="1" as="geometry">
            <mxPoint x="65" y="270" as="targetPoint" />
          </mxGeometry>
        </mxCell>
        <mxCell id="fAiptgPwoaIp5djZWvxq-5" value="captures interactions" style="rounded=1;whiteSpace=wrap;html=1;absoluteArcSize=1;arcSize=14;strokeWidth=2;" vertex="1" parent="dNxyNK7c78bLwvsdeMH5-20">
          <mxGeometry x="30" y="140" width="70" height="50" as="geometry" />
        </mxCell>
        <mxCell id="fAiptgPwoaIp5djZWvxq-65" style="edgeStyle=orthogonalEdgeStyle;rounded=0;orthogonalLoop=1;jettySize=auto;html=1;exitX=1;exitY=0.5;exitDx=0;exitDy=0;exitPerimeter=0;" edge="1" parent="dNxyNK7c78bLwvsdeMH5-20" source="fAiptgPwoaIp5djZWvxq-64">
          <mxGeometry relative="1" as="geometry">
            <mxPoint x="580" y="130" as="targetPoint" />
          </mxGeometry>
        </mxCell>
        <mxCell id="fAiptgPwoaIp5djZWvxq-66" style="edgeStyle=orthogonalEdgeStyle;rounded=0;orthogonalLoop=1;jettySize=auto;html=1;exitX=0;exitY=0.5;exitDx=0;exitDy=0;exitPerimeter=0;" edge="1" parent="dNxyNK7c78bLwvsdeMH5-20" source="fAiptgPwoaIp5djZWvxq-64">
          <mxGeometry relative="1" as="geometry">
            <mxPoint x="420" y="130" as="targetPoint" />
          </mxGeometry>
        </mxCell>
        <mxCell id="fAiptgPwoaIp5djZWvxq-64" value="" style="strokeWidth=2;html=1;shape=mxgraph.flowchart.decision;whiteSpace=wrap;" vertex="1" parent="dNxyNK7c78bLwvsdeMH5-20">
          <mxGeometry x="480" y="160" width="40" height="30" as="geometry" />
        </mxCell>
        <mxCell id="fAiptgPwoaIp5djZWvxq-67" value="provide putty stats" style="rounded=1;whiteSpace=wrap;html=1;absoluteArcSize=1;arcSize=14;strokeWidth=2;" vertex="1" parent="dNxyNK7c78bLwvsdeMH5-20">
          <mxGeometry x="380" y="100" width="80" height="30" as="geometry" />
        </mxCell>
        <mxCell id="fAiptgPwoaIp5djZWvxq-74" style="edgeStyle=orthogonalEdgeStyle;rounded=0;orthogonalLoop=1;jettySize=auto;html=1;exitX=1;exitY=0.5;exitDx=0;exitDy=0;" edge="1" parent="dNxyNK7c78bLwvsdeMH5-20" source="fAiptgPwoaIp5djZWvxq-68">
          <mxGeometry relative="1" as="geometry">
            <mxPoint x="680" y="115" as="targetPoint" />
          </mxGeometry>
        </mxCell>
        <mxCell id="fAiptgPwoaIp5djZWvxq-76" style="edgeStyle=orthogonalEdgeStyle;rounded=0;orthogonalLoop=1;jettySize=auto;html=1;exitX=0.5;exitY=0;exitDx=0;exitDy=0;" edge="1" parent="dNxyNK7c78bLwvsdeMH5-20" source="fAiptgPwoaIp5djZWvxq-68">
          <mxGeometry relative="1" as="geometry">
            <mxPoint x="585" y="-50" as="targetPoint" />
          </mxGeometry>
        </mxCell>
        <mxCell id="fAiptgPwoaIp5djZWvxq-68" value="provides workflow stats" style="rounded=1;whiteSpace=wrap;html=1;absoluteArcSize=1;arcSize=14;strokeWidth=2;" vertex="1" parent="dNxyNK7c78bLwvsdeMH5-20">
          <mxGeometry x="540" y="100" width="90" height="30" as="geometry" />
        </mxCell>
        <mxCell id="fAiptgPwoaIp5djZWvxq-79" style="edgeStyle=orthogonalEdgeStyle;rounded=0;orthogonalLoop=1;jettySize=auto;html=1;exitX=0.5;exitY=1;exitDx=0;exitDy=0;exitPerimeter=0;" edge="1" parent="dNxyNK7c78bLwvsdeMH5-20" source="fAiptgPwoaIp5djZWvxq-73">
          <mxGeometry relative="1" as="geometry">
            <mxPoint x="695" y="620.6666259765625" as="targetPoint" />
          </mxGeometry>
        </mxCell>
        <mxCell id="fAiptgPwoaIp5djZWvxq-73" value="" style="strokeWidth=2;html=1;shape=mxgraph.flowchart.decision;whiteSpace=wrap;" vertex="1" parent="dNxyNK7c78bLwvsdeMH5-20">
          <mxGeometry x="680" y="102.5" width="30" height="25" as="geometry" />
        </mxCell>
        <mxCell id="fAiptgPwoaIp5djZWvxq-75" style="edgeStyle=orthogonalEdgeStyle;rounded=0;orthogonalLoop=1;jettySize=auto;html=1;exitX=0.5;exitY=0;exitDx=0;exitDy=0;entryX=0.5;entryY=0;entryDx=0;entryDy=0;entryPerimeter=0;" edge="1" parent="dNxyNK7c78bLwvsdeMH5-20" source="fAiptgPwoaIp5djZWvxq-67" target="fAiptgPwoaIp5djZWvxq-73">
          <mxGeometry relative="1" as="geometry" />
        </mxCell>
        <mxCell id="fAiptgPwoaIp5djZWvxq-106" style="edgeStyle=orthogonalEdgeStyle;rounded=0;orthogonalLoop=1;jettySize=auto;html=1;exitX=0.5;exitY=0;exitDx=0;exitDy=0;" edge="1" parent="dNxyNK7c78bLwvsdeMH5-20" source="fAiptgPwoaIp5djZWvxq-105">
          <mxGeometry relative="1" as="geometry">
            <mxPoint x="1005" y="80" as="targetPoint" />
          </mxGeometry>
        </mxCell>
        <mxCell id="fAiptgPwoaIp5djZWvxq-105" value="Queues for payroll" style="rounded=1;whiteSpace=wrap;html=1;absoluteArcSize=1;arcSize=14;strokeWidth=2;" vertex="1" parent="dNxyNK7c78bLwvsdeMH5-20">
          <mxGeometry x="955" y="150" width="100" height="30" as="geometry" />
        </mxCell>
        <mxCell id="fAiptgPwoaIp5djZWvxq-107" value="" style="ellipse;html=1;shape=endState;fillColor=strokeColor;" vertex="1" parent="dNxyNK7c78bLwvsdeMH5-20">
          <mxGeometry x="980" y="30" width="50" height="50" as="geometry" />
        </mxCell>
        <mxCell id="dNxyNK7c78bLwvsdeMH5-21" value="QA agent portal" style="swimlane;html=1;startSize=20;horizontal=0;" parent="dNxyNK7c78bLwvsdeMH5-19" vertex="1">
          <mxGeometry x="20" y="230" width="1220" height="360" as="geometry" />
        </mxCell>
        <mxCell id="fAiptgPwoaIp5djZWvxq-7" value="go through work flow" style="rounded=1;whiteSpace=wrap;html=1;absoluteArcSize=1;arcSize=14;strokeWidth=2;" vertex="1" parent="dNxyNK7c78bLwvsdeMH5-21">
          <mxGeometry x="40" y="40" width="60" height="40" as="geometry" />
        </mxCell>
        <mxCell id="fAiptgPwoaIp5djZWvxq-15" value="Audits for new application/continuation" style="rounded=1;whiteSpace=wrap;html=1;absoluteArcSize=1;arcSize=14;strokeWidth=2;" vertex="1" parent="dNxyNK7c78bLwvsdeMH5-21">
          <mxGeometry x="100" y="260" width="130" height="40" as="geometry" />
        </mxCell>
        <mxCell id="fAiptgPwoaIp5djZWvxq-20" style="edgeStyle=orthogonalEdgeStyle;rounded=0;orthogonalLoop=1;jettySize=auto;html=1;exitX=0.5;exitY=0;exitDx=0;exitDy=0;" edge="1" parent="dNxyNK7c78bLwvsdeMH5-21" source="fAiptgPwoaIp5djZWvxq-17">
          <mxGeometry relative="1" as="geometry">
            <mxPoint x="170" y="110" as="targetPoint" />
          </mxGeometry>
        </mxCell>
        <mxCell id="fAiptgPwoaIp5djZWvxq-17" value="audits for dependent update" style="rounded=1;whiteSpace=wrap;html=1;absoluteArcSize=1;arcSize=14;strokeWidth=2;" vertex="1" parent="dNxyNK7c78bLwvsdeMH5-21">
          <mxGeometry x="120" y="140" width="100" height="40" as="geometry" />
        </mxCell>
        <mxCell id="fAiptgPwoaIp5djZWvxq-26" style="edgeStyle=orthogonalEdgeStyle;rounded=0;orthogonalLoop=1;jettySize=auto;html=1;exitX=0;exitY=0.5;exitDx=0;exitDy=0;exitPerimeter=0;" edge="1" parent="dNxyNK7c78bLwvsdeMH5-21" source="fAiptgPwoaIp5djZWvxq-18">
          <mxGeometry relative="1" as="geometry">
            <mxPoint x="170" y="180" as="targetPoint" />
          </mxGeometry>
        </mxCell>
        <mxCell id="fAiptgPwoaIp5djZWvxq-18" value="" style="strokeWidth=2;html=1;shape=mxgraph.flowchart.decision;whiteSpace=wrap;direction=south;" vertex="1" parent="dNxyNK7c78bLwvsdeMH5-21">
          <mxGeometry x="155" y="200" width="30" height="30" as="geometry" />
        </mxCell>
        <mxCell id="fAiptgPwoaIp5djZWvxq-28" style="edgeStyle=orthogonalEdgeStyle;rounded=0;orthogonalLoop=1;jettySize=auto;html=1;exitX=0.5;exitY=0;exitDx=0;exitDy=0;exitPerimeter=0;" edge="1" parent="dNxyNK7c78bLwvsdeMH5-21" source="fAiptgPwoaIp5djZWvxq-21">
          <mxGeometry relative="1" as="geometry">
            <mxPoint x="170" y="60" as="targetPoint" />
          </mxGeometry>
        </mxCell>
        <mxCell id="fAiptgPwoaIp5djZWvxq-21" value="" style="strokeWidth=2;html=1;shape=mxgraph.flowchart.decision;whiteSpace=wrap;" vertex="1" parent="dNxyNK7c78bLwvsdeMH5-21">
          <mxGeometry x="155" y="80" width="30" height="30" as="geometry" />
        </mxCell>
        <mxCell id="fAiptgPwoaIp5djZWvxq-25" style="edgeStyle=orthogonalEdgeStyle;rounded=0;orthogonalLoop=1;jettySize=auto;html=1;exitX=0.5;exitY=0;exitDx=0;exitDy=0;entryX=1;entryY=0.5;entryDx=0;entryDy=0;entryPerimeter=0;" edge="1" parent="dNxyNK7c78bLwvsdeMH5-21" source="fAiptgPwoaIp5djZWvxq-15" target="fAiptgPwoaIp5djZWvxq-18">
          <mxGeometry relative="1" as="geometry" />
        </mxCell>
        <mxCell id="fAiptgPwoaIp5djZWvxq-27" value="audits for option change" style="rounded=1;whiteSpace=wrap;html=1;absoluteArcSize=1;arcSize=14;strokeWidth=2;" vertex="1" parent="dNxyNK7c78bLwvsdeMH5-21">
          <mxGeometry x="120" y="20" width="100" height="35" as="geometry" />
        </mxCell>
        <mxCell id="fAiptgPwoaIp5djZWvxq-32" value="audits for cancellation" style="rounded=1;whiteSpace=wrap;html=1;absoluteArcSize=1;arcSize=20;strokeWidth=2;" vertex="1" parent="dNxyNK7c78bLwvsdeMH5-21">
          <mxGeometry x="315" y="20" width="70" height="35" as="geometry" />
        </mxCell>
        <mxCell id="fAiptgPwoaIp5djZWvxq-116" style="edgeStyle=orthogonalEdgeStyle;rounded=0;orthogonalLoop=1;jettySize=auto;html=1;" edge="1" parent="dNxyNK7c78bLwvsdeMH5-21" source="fAiptgPwoaIp5djZWvxq-33" target="fAiptgPwoaIp5djZWvxq-32">
          <mxGeometry relative="1" as="geometry" />
        </mxCell>
        <mxCell id="fAiptgPwoaIp5djZWvxq-33" value="" style="strokeWidth=2;html=1;shape=mxgraph.flowchart.decision;whiteSpace=wrap;" vertex="1" parent="dNxyNK7c78bLwvsdeMH5-21">
          <mxGeometry x="260" y="22.5" width="30" height="30" as="geometry" />
        </mxCell>
        <mxCell id="fAiptgPwoaIp5djZWvxq-112" style="edgeStyle=orthogonalEdgeStyle;rounded=0;orthogonalLoop=1;jettySize=auto;html=1;entryX=0.5;entryY=0;entryDx=0;entryDy=0;" edge="1" parent="dNxyNK7c78bLwvsdeMH5-21" source="fAiptgPwoaIp5djZWvxq-37" target="fAiptgPwoaIp5djZWvxq-39">
          <mxGeometry relative="1" as="geometry" />
        </mxCell>
        <mxCell id="fAiptgPwoaIp5djZWvxq-37" value="" style="strokeWidth=2;html=1;shape=mxgraph.flowchart.decision;whiteSpace=wrap;" vertex="1" parent="dNxyNK7c78bLwvsdeMH5-21">
          <mxGeometry x="335" y="90" width="30" height="30" as="geometry" />
        </mxCell>
        <mxCell id="fAiptgPwoaIp5djZWvxq-39" value="Audits for request claim form" style="rounded=1;whiteSpace=wrap;html=1;absoluteArcSize=1;arcSize=14;strokeWidth=2;" vertex="1" parent="dNxyNK7c78bLwvsdeMH5-21">
          <mxGeometry x="300" y="140" width="100" height="30" as="geometry" />
        </mxCell>
        <mxCell id="fAiptgPwoaIp5djZWvxq-110" style="edgeStyle=orthogonalEdgeStyle;rounded=0;orthogonalLoop=1;jettySize=auto;html=1;entryX=0.5;entryY=0;entryDx=0;entryDy=0;" edge="1" parent="dNxyNK7c78bLwvsdeMH5-21" source="fAiptgPwoaIp5djZWvxq-41" target="fAiptgPwoaIp5djZWvxq-43">
          <mxGeometry relative="1" as="geometry" />
        </mxCell>
        <mxCell id="fAiptgPwoaIp5djZWvxq-118" style="edgeStyle=orthogonalEdgeStyle;rounded=0;orthogonalLoop=1;jettySize=auto;html=1;" edge="1" parent="dNxyNK7c78bLwvsdeMH5-21" source="fAiptgPwoaIp5djZWvxq-41">
          <mxGeometry relative="1" as="geometry">
            <mxPoint x="440" y="320" as="targetPoint" />
          </mxGeometry>
        </mxCell>
        <mxCell id="fAiptgPwoaIp5djZWvxq-41" value="" style="strokeWidth=2;html=1;shape=mxgraph.flowchart.decision;whiteSpace=wrap;" vertex="1" parent="dNxyNK7c78bLwvsdeMH5-21">
          <mxGeometry x="335" y="190" width="30" height="30" as="geometry" />
        </mxCell>
        <mxCell id="fAiptgPwoaIp5djZWvxq-43" value="audits for approve claim" style="rounded=1;whiteSpace=wrap;html=1;absoluteArcSize=1;arcSize=14;strokeWidth=2;" vertex="1" parent="dNxyNK7c78bLwvsdeMH5-21">
          <mxGeometry x="300" y="240" width="100" height="30" as="geometry" />
        </mxCell>
        <mxCell id="fAiptgPwoaIp5djZWvxq-47" value="" style="line;strokeWidth=2;html=1;" vertex="1" parent="dNxyNK7c78bLwvsdeMH5-21">
          <mxGeometry x="220" y="331" width="270" height="10" as="geometry" />
        </mxCell>
        <mxCell id="fAiptgPwoaIp5djZWvxq-49" style="edgeStyle=orthogonalEdgeStyle;rounded=0;orthogonalLoop=1;jettySize=auto;html=1;exitX=1;exitY=0.5;exitDx=0;exitDy=0;exitPerimeter=0;entryX=0.106;entryY=0.233;entryDx=0;entryDy=0;entryPerimeter=0;" edge="1" parent="dNxyNK7c78bLwvsdeMH5-21" source="fAiptgPwoaIp5djZWvxq-21" target="fAiptgPwoaIp5djZWvxq-47">
          <mxGeometry relative="1" as="geometry">
            <Array as="points">
              <mxPoint x="249" y="95" />
            </Array>
          </mxGeometry>
        </mxCell>
        <mxCell id="fAiptgPwoaIp5djZWvxq-51" style="edgeStyle=orthogonalEdgeStyle;rounded=0;orthogonalLoop=1;jettySize=auto;html=1;exitX=0.5;exitY=0;exitDx=0;exitDy=0;exitPerimeter=0;entryX=0.063;entryY=0.233;entryDx=0;entryDy=0;entryPerimeter=0;" edge="1" parent="dNxyNK7c78bLwvsdeMH5-21" source="fAiptgPwoaIp5djZWvxq-18" target="fAiptgPwoaIp5djZWvxq-47">
          <mxGeometry relative="1" as="geometry" />
        </mxCell>
        <mxCell id="fAiptgPwoaIp5djZWvxq-111" style="edgeStyle=orthogonalEdgeStyle;rounded=0;orthogonalLoop=1;jettySize=auto;html=1;entryX=0.5;entryY=0;entryDx=0;entryDy=0;entryPerimeter=0;" edge="1" parent="dNxyNK7c78bLwvsdeMH5-21" source="fAiptgPwoaIp5djZWvxq-39" target="fAiptgPwoaIp5djZWvxq-41">
          <mxGeometry relative="1" as="geometry" />
        </mxCell>
        <mxCell id="fAiptgPwoaIp5djZWvxq-113" style="edgeStyle=orthogonalEdgeStyle;rounded=0;orthogonalLoop=1;jettySize=auto;html=1;entryX=0.5;entryY=0;entryDx=0;entryDy=0;entryPerimeter=0;" edge="1" parent="dNxyNK7c78bLwvsdeMH5-21" source="fAiptgPwoaIp5djZWvxq-32" target="fAiptgPwoaIp5djZWvxq-37">
          <mxGeometry relative="1" as="geometry" />
        </mxCell>
        <mxCell id="fAiptgPwoaIp5djZWvxq-115" style="edgeStyle=orthogonalEdgeStyle;rounded=0;orthogonalLoop=1;jettySize=auto;html=1;entryX=0;entryY=0.5;entryDx=0;entryDy=0;entryPerimeter=0;" edge="1" parent="dNxyNK7c78bLwvsdeMH5-21" source="fAiptgPwoaIp5djZWvxq-27" target="fAiptgPwoaIp5djZWvxq-33">
          <mxGeometry relative="1" as="geometry" />
        </mxCell>
        <mxCell id="fAiptgPwoaIp5djZWvxq-117" style="edgeStyle=orthogonalEdgeStyle;rounded=0;orthogonalLoop=1;jettySize=auto;html=1;entryX=0.889;entryY=0;entryDx=0;entryDy=0;entryPerimeter=0;" edge="1" parent="dNxyNK7c78bLwvsdeMH5-21" source="fAiptgPwoaIp5djZWvxq-37" target="fAiptgPwoaIp5djZWvxq-47">
          <mxGeometry relative="1" as="geometry">
            <Array as="points">
              <mxPoint x="460" y="105" />
            </Array>
          </mxGeometry>
        </mxCell>
        <mxCell id="fAiptgPwoaIp5djZWvxq-123" style="edgeStyle=orthogonalEdgeStyle;rounded=0;orthogonalLoop=1;jettySize=auto;html=1;entryX=0.484;entryY=0.538;entryDx=0;entryDy=0;entryPerimeter=0;" edge="1" parent="dNxyNK7c78bLwvsdeMH5-21" source="fAiptgPwoaIp5djZWvxq-43" target="fAiptgPwoaIp5djZWvxq-47">
          <mxGeometry relative="1" as="geometry" />
        </mxCell>
        <mxCell id="dNxyNK7c78bLwvsdeMH5-22" value="REM digital system" style="swimlane;html=1;startSize=20;horizontal=0;" parent="dNxyNK7c78bLwvsdeMH5-19" vertex="1">
          <mxGeometry x="20" y="590" width="1220" height="260" as="geometry" />
        </mxCell>
        <mxCell id="fAiptgPwoaIp5djZWvxq-9" value="captures general information" style="rounded=1;whiteSpace=wrap;html=1;absoluteArcSize=1;arcSize=14;strokeWidth=2;" vertex="1" parent="dNxyNK7c78bLwvsdeMH5-22">
          <mxGeometry x="35" y="20" width="70" height="50" as="geometry" />
        </mxCell>
        <mxCell id="fAiptgPwoaIp5djZWvxq-56" style="edgeStyle=orthogonalEdgeStyle;rounded=0;orthogonalLoop=1;jettySize=auto;html=1;exitX=0.5;exitY=1;exitDx=0;exitDy=0;" edge="1" parent="dNxyNK7c78bLwvsdeMH5-22" source="fAiptgPwoaIp5djZWvxq-57">
          <mxGeometry relative="1" as="geometry">
            <mxPoint x="375" y="110" as="targetPoint" />
          </mxGeometry>
        </mxCell>
        <mxCell id="fAiptgPwoaIp5djZWvxq-55" value="update scorecard" style="rounded=1;whiteSpace=wrap;html=1;absoluteArcSize=1;arcSize=14;strokeWidth=2;" vertex="1" parent="dNxyNK7c78bLwvsdeMH5-22">
          <mxGeometry x="318" y="60" width="70" height="30" as="geometry" />
        </mxCell>
        <mxCell id="fAiptgPwoaIp5djZWvxq-57" value="calculates agent scores" style="rounded=1;whiteSpace=wrap;html=1;absoluteArcSize=1;arcSize=14;strokeWidth=2;" vertex="1" parent="dNxyNK7c78bLwvsdeMH5-22">
          <mxGeometry x="308" y="110" width="90" height="30" as="geometry" />
        </mxCell>
        <mxCell id="fAiptgPwoaIp5djZWvxq-58" value="" style="edgeStyle=orthogonalEdgeStyle;rounded=0;orthogonalLoop=1;jettySize=auto;html=1;exitX=0.5;exitY=1;exitDx=0;exitDy=0;" edge="1" parent="dNxyNK7c78bLwvsdeMH5-22" source="fAiptgPwoaIp5djZWvxq-55" target="fAiptgPwoaIp5djZWvxq-57">
          <mxGeometry relative="1" as="geometry">
            <mxPoint x="515" y="820" as="targetPoint" />
            <mxPoint x="515" y="800" as="sourcePoint" />
          </mxGeometry>
        </mxCell>
        <mxCell id="fAiptgPwoaIp5djZWvxq-61" style="edgeStyle=orthogonalEdgeStyle;rounded=0;orthogonalLoop=1;jettySize=auto;html=1;exitX=1;exitY=0.5;exitDx=0;exitDy=0;" edge="1" parent="dNxyNK7c78bLwvsdeMH5-22" source="fAiptgPwoaIp5djZWvxq-60">
          <mxGeometry relative="1" as="geometry">
            <mxPoint x="450" y="185" as="targetPoint" />
          </mxGeometry>
        </mxCell>
        <mxCell id="fAiptgPwoaIp5djZWvxq-60" value="updates digital master sheet" style="rounded=1;whiteSpace=wrap;html=1;absoluteArcSize=1;arcSize=14;strokeWidth=2;" vertex="1" parent="dNxyNK7c78bLwvsdeMH5-22">
          <mxGeometry x="300.5" y="170" width="105" height="30" as="geometry" />
        </mxCell>
        <mxCell id="fAiptgPwoaIp5djZWvxq-59" style="edgeStyle=orthogonalEdgeStyle;rounded=0;orthogonalLoop=1;jettySize=auto;html=1;exitX=0.5;exitY=1;exitDx=0;exitDy=0;" edge="1" parent="dNxyNK7c78bLwvsdeMH5-22" source="fAiptgPwoaIp5djZWvxq-57" target="fAiptgPwoaIp5djZWvxq-60">
          <mxGeometry relative="1" as="geometry">
            <mxPoint x="375" y="160" as="targetPoint" />
          </mxGeometry>
        </mxCell>
        <mxCell id="fAiptgPwoaIp5djZWvxq-63" style="edgeStyle=orthogonalEdgeStyle;rounded=0;orthogonalLoop=1;jettySize=auto;html=1;exitX=0.5;exitY=0;exitDx=0;exitDy=0;" edge="1" parent="dNxyNK7c78bLwvsdeMH5-22" source="fAiptgPwoaIp5djZWvxq-62">
          <mxGeometry relative="1" as="geometry">
            <mxPoint x="500" y="-404" as="targetPoint" />
          </mxGeometry>
        </mxCell>
        <mxCell id="fAiptgPwoaIp5djZWvxq-62" value="extracts workflow and putty stats" style="rounded=1;whiteSpace=wrap;html=1;absoluteArcSize=1;arcSize=14;strokeWidth=2;" vertex="1" parent="dNxyNK7c78bLwvsdeMH5-22">
          <mxGeometry x="450" y="170" width="100" height="30" as="geometry" />
        </mxCell>
        <mxCell id="fAiptgPwoaIp5djZWvxq-81" style="edgeStyle=orthogonalEdgeStyle;rounded=0;orthogonalLoop=1;jettySize=auto;html=1;exitX=1;exitY=0.5;exitDx=0;exitDy=0;exitPerimeter=0;" edge="1" parent="dNxyNK7c78bLwvsdeMH5-22" source="fAiptgPwoaIp5djZWvxq-80">
          <mxGeometry relative="1" as="geometry">
            <mxPoint x="800" y="156" as="targetPoint" />
          </mxGeometry>
        </mxCell>
        <mxCell id="fAiptgPwoaIp5djZWvxq-83" style="edgeStyle=orthogonalEdgeStyle;rounded=0;orthogonalLoop=1;jettySize=auto;html=1;exitX=0;exitY=0.5;exitDx=0;exitDy=0;exitPerimeter=0;" edge="1" parent="dNxyNK7c78bLwvsdeMH5-22" source="fAiptgPwoaIp5djZWvxq-80">
          <mxGeometry relative="1" as="geometry">
            <mxPoint x="600" y="160" as="targetPoint" />
          </mxGeometry>
        </mxCell>
        <mxCell id="fAiptgPwoaIp5djZWvxq-80" value="" style="strokeWidth=2;html=1;shape=mxgraph.flowchart.decision;whiteSpace=wrap;" vertex="1" parent="dNxyNK7c78bLwvsdeMH5-22">
          <mxGeometry x="680" y="30" width="30" height="30" as="geometry" />
        </mxCell>
        <mxCell id="fAiptgPwoaIp5djZWvxq-90" style="edgeStyle=orthogonalEdgeStyle;rounded=0;orthogonalLoop=1;jettySize=auto;html=1;exitX=0.5;exitY=1;exitDx=0;exitDy=0;entryX=1;entryY=0.5;entryDx=0;entryDy=0;entryPerimeter=0;" edge="1" parent="dNxyNK7c78bLwvsdeMH5-22" source="fAiptgPwoaIp5djZWvxq-84" target="fAiptgPwoaIp5djZWvxq-93">
          <mxGeometry relative="1" as="geometry">
            <mxPoint x="930.6666259765625" y="70" as="targetPoint" />
            <Array as="points">
              <mxPoint x="600" y="240" />
              <mxPoint x="931" y="240" />
              <mxPoint x="931" y="55" />
            </Array>
          </mxGeometry>
        </mxCell>
        <mxCell id="fAiptgPwoaIp5djZWvxq-84" value="calculates stats vs target" style="rounded=1;whiteSpace=wrap;html=1;absoluteArcSize=1;arcSize=14;strokeWidth=2;" vertex="1" parent="dNxyNK7c78bLwvsdeMH5-22">
          <mxGeometry x="560" y="160" width="90" height="30" as="geometry" />
        </mxCell>
        <mxCell id="fAiptgPwoaIp5djZWvxq-85" value="calculates days worked vs production days" style="rounded=1;whiteSpace=wrap;html=1;absoluteArcSize=1;arcSize=14;strokeWidth=2;" vertex="1" parent="dNxyNK7c78bLwvsdeMH5-22">
          <mxGeometry x="660" y="160" width="90" height="40" as="geometry" />
        </mxCell>
        <mxCell id="fAiptgPwoaIp5djZWvxq-87" style="edgeStyle=orthogonalEdgeStyle;rounded=0;orthogonalLoop=1;jettySize=auto;html=1;exitX=0.5;exitY=1;exitDx=0;exitDy=0;exitPerimeter=0;entryX=0.389;entryY=-0.058;entryDx=0;entryDy=0;entryPerimeter=0;" edge="1" parent="dNxyNK7c78bLwvsdeMH5-22" source="fAiptgPwoaIp5djZWvxq-80" target="fAiptgPwoaIp5djZWvxq-85">
          <mxGeometry relative="1" as="geometry" />
        </mxCell>
        <mxCell id="fAiptgPwoaIp5djZWvxq-88" value="Calculates QA vs target" style="rounded=1;whiteSpace=wrap;html=1;absoluteArcSize=1;arcSize=14;strokeWidth=2;" vertex="1" parent="dNxyNK7c78bLwvsdeMH5-22">
          <mxGeometry x="760" y="160" width="90" height="30" as="geometry" />
        </mxCell>
        <mxCell id="fAiptgPwoaIp5djZWvxq-93" value="" style="strokeWidth=2;html=1;shape=mxgraph.flowchart.decision;whiteSpace=wrap;" vertex="1" parent="dNxyNK7c78bLwvsdeMH5-22">
          <mxGeometry x="880" y="160" width="30" height="30" as="geometry" />
        </mxCell>
        <mxCell id="fAiptgPwoaIp5djZWvxq-95" style="edgeStyle=orthogonalEdgeStyle;rounded=0;orthogonalLoop=1;jettySize=auto;html=1;exitX=0.5;exitY=1;exitDx=0;exitDy=0;entryX=0.5;entryY=1;entryDx=0;entryDy=0;entryPerimeter=0;" edge="1" parent="dNxyNK7c78bLwvsdeMH5-22" source="fAiptgPwoaIp5djZWvxq-85" target="fAiptgPwoaIp5djZWvxq-93">
          <mxGeometry relative="1" as="geometry" />
        </mxCell>
        <mxCell id="fAiptgPwoaIp5djZWvxq-97" style="edgeStyle=orthogonalEdgeStyle;rounded=0;orthogonalLoop=1;jettySize=auto;html=1;exitX=1;exitY=0.5;exitDx=0;exitDy=0;entryX=0;entryY=0.5;entryDx=0;entryDy=0;entryPerimeter=0;" edge="1" parent="dNxyNK7c78bLwvsdeMH5-22" source="fAiptgPwoaIp5djZWvxq-88" target="fAiptgPwoaIp5djZWvxq-93">
          <mxGeometry relative="1" as="geometry" />
        </mxCell>
        <mxCell id="fAiptgPwoaIp5djZWvxq-101" value="calculates the REM amount" style="rounded=1;whiteSpace=wrap;html=1;absoluteArcSize=1;arcSize=14;strokeWidth=2;" vertex="1" parent="dNxyNK7c78bLwvsdeMH5-22">
          <mxGeometry x="950" y="150" width="110" height="30" as="geometry" />
        </mxCell>
        <mxCell id="fAiptgPwoaIp5djZWvxq-100" style="edgeStyle=orthogonalEdgeStyle;rounded=0;orthogonalLoop=1;jettySize=auto;html=1;exitX=0.5;exitY=0;exitDx=0;exitDy=0;exitPerimeter=0;" edge="1" parent="dNxyNK7c78bLwvsdeMH5-22" source="fAiptgPwoaIp5djZWvxq-93" target="fAiptgPwoaIp5djZWvxq-101">
          <mxGeometry relative="1" as="geometry">
            <mxPoint x="980" y="200" as="targetPoint" />
            <Array as="points">
              <mxPoint x="895" y="20" />
              <mxPoint x="945" y="20" />
              <mxPoint x="945" y="240" />
              <mxPoint x="1000" y="240" />
            </Array>
          </mxGeometry>
        </mxCell>
        <mxCell id="fAiptgPwoaIp5djZWvxq-103" value="sends to team leader/manager" style="rounded=1;whiteSpace=wrap;html=1;absoluteArcSize=1;arcSize=14;strokeWidth=2;" vertex="1" parent="dNxyNK7c78bLwvsdeMH5-22">
          <mxGeometry x="955" y="60" width="100" height="30" as="geometry" />
        </mxCell>
        <mxCell id="fAiptgPwoaIp5djZWvxq-102" style="edgeStyle=orthogonalEdgeStyle;rounded=0;orthogonalLoop=1;jettySize=auto;html=1;exitX=0.5;exitY=0;exitDx=0;exitDy=0;" edge="1" parent="dNxyNK7c78bLwvsdeMH5-22" source="fAiptgPwoaIp5djZWvxq-101" target="fAiptgPwoaIp5djZWvxq-103">
          <mxGeometry relative="1" as="geometry">
            <mxPoint x="1005" y="90" as="targetPoint" />
          </mxGeometry>
        </mxCell>
        <mxCell id="fAiptgPwoaIp5djZWvxq-14" style="edgeStyle=orthogonalEdgeStyle;rounded=0;orthogonalLoop=1;jettySize=auto;html=1;exitX=1;exitY=0.5;exitDx=0;exitDy=0;" edge="1" parent="dNxyNK7c78bLwvsdeMH5-19" source="fAiptgPwoaIp5djZWvxq-9">
          <mxGeometry relative="1" as="geometry">
            <mxPoint x="180" y="530" as="targetPoint" />
          </mxGeometry>
        </mxCell>
        <mxCell id="fAiptgPwoaIp5djZWvxq-8" style="edgeStyle=orthogonalEdgeStyle;rounded=0;orthogonalLoop=1;jettySize=auto;html=1;exitX=0.5;exitY=1;exitDx=0;exitDy=0;entryX=0.5;entryY=0;entryDx=0;entryDy=0;" edge="1" parent="dNxyNK7c78bLwvsdeMH5-19" source="fAiptgPwoaIp5djZWvxq-7" target="fAiptgPwoaIp5djZWvxq-9">
          <mxGeometry relative="1" as="geometry">
            <mxPoint x="90" y="450" as="targetPoint" />
          </mxGeometry>
        </mxCell>
        <mxCell id="fAiptgPwoaIp5djZWvxq-104" style="edgeStyle=orthogonalEdgeStyle;rounded=0;orthogonalLoop=1;jettySize=auto;html=1;exitX=0.5;exitY=0;exitDx=0;exitDy=0;" edge="1" parent="dNxyNK7c78bLwvsdeMH5-19" source="fAiptgPwoaIp5djZWvxq-103" target="fAiptgPwoaIp5djZWvxq-105">
          <mxGeometry relative="1" as="geometry">
            <mxPoint x="1025" y="130" as="targetPoint" />
          </mxGeometry>
        </mxCell>
        <mxCell id="fAiptgPwoaIp5djZWvxq-129" style="edgeStyle=orthogonalEdgeStyle;rounded=0;orthogonalLoop=1;jettySize=auto;html=1;entryX=0.525;entryY=0.012;entryDx=0;entryDy=0;entryPerimeter=0;" edge="1" parent="dNxyNK7c78bLwvsdeMH5-19" source="fAiptgPwoaIp5djZWvxq-47" target="fAiptgPwoaIp5djZWvxq-55">
          <mxGeometry relative="1" as="geometry" />
        </mxCell>
        <mxCell id="fAiptgPwoaIp5djZWvxq-12" value="OWLs creates workflows and captures interactions" style="shape=note;whiteSpace=wrap;html=1;backgroundOutline=1;fontColor=#000000;darkOpacity=0.05;fillColor=#FFF9B2;strokeColor=none;fillStyle=solid;direction=west;gradientDirection=north;gradientColor=#FFF2A1;shadow=1;size=20;pointerEvents=1;" vertex="1" parent="1">
          <mxGeometry x="160" y="-40" width="130" height="110" as="geometry" />
        </mxCell>
        <mxCell id="fAiptgPwoaIp5djZWvxq-13" style="edgeStyle=orthogonalEdgeStyle;rounded=0;orthogonalLoop=1;jettySize=auto;html=1;exitX=1;exitY=0.5;exitDx=0;exitDy=0;entryX=0.283;entryY=-0.033;entryDx=0;entryDy=0;entryPerimeter=0;" edge="1" parent="1" source="fAiptgPwoaIp5djZWvxq-5" target="fAiptgPwoaIp5djZWvxq-12">
          <mxGeometry relative="1" as="geometry" />
        </mxCell>
        <mxCell id="fAiptgPwoaIp5djZWvxq-108" value="Jasper provides putty stats" style="shape=note;whiteSpace=wrap;html=1;backgroundOutline=1;fontColor=#000000;darkOpacity=0.05;fillColor=#FFF9B2;strokeColor=none;fillStyle=solid;direction=west;gradientDirection=north;gradientColor=#FFF2A1;shadow=1;size=20;pointerEvents=1;" vertex="1" parent="1">
          <mxGeometry x="490" y="-40" width="80" height="100" as="geometry" />
        </mxCell>
        <mxCell id="fAiptgPwoaIp5djZWvxq-77" style="edgeStyle=orthogonalEdgeStyle;rounded=0;orthogonalLoop=1;jettySize=auto;html=1;exitX=0.25;exitY=0;exitDx=0;exitDy=0;entryX=0;entryY=0;entryDx=30;entryDy=0;entryPerimeter=0;" edge="1" parent="1" source="fAiptgPwoaIp5djZWvxq-67" target="fAiptgPwoaIp5djZWvxq-108">
          <mxGeometry relative="1" as="geometry">
            <mxPoint x="540" y="70" as="targetPoint" />
          </mxGeometry>
        </mxCell>
        <mxCell id="fAiptgPwoaIp5djZWvxq-109" value="MIP provides workflows" style="shape=note;whiteSpace=wrap;html=1;backgroundOutline=1;fontColor=#000000;darkOpacity=0.05;fillColor=#FFF9B2;strokeColor=none;fillStyle=solid;direction=west;gradientDirection=north;gradientColor=#FFF2A1;shadow=1;size=20;pointerEvents=1;" vertex="1" parent="1">
          <mxGeometry x="610" y="-40" width="90" height="110" as="geometry" />
        </mxCell>
      </root>
    </mxGraphModel>
  </diagram>
</mxfile>
